<?xml version="1.0" encoding="UTF-8" standalone="no"?>
<svg
   xmlns:dc="http://purl.org/dc/elements/1.1/"
   xmlns:cc="http://creativecommons.org/ns#"
   xmlns:rdf="http://www.w3.org/1999/02/22-rdf-syntax-ns#"
   xmlns:svg="http://www.w3.org/2000/svg"
   xmlns="http://www.w3.org/2000/svg"
   width="744.09448819"
   height="1052.3622047"
   id="svg2"
   version="1.1">
  <defs
     id="defs4" />
  <metadata
     id="metadata7">
    <rdf:RDF>
      <cc:Work
         rdf:about="">
        <dc:format>image/svg+xml</dc:format>
        <dc:type
           rdf:resource="http://purl.org/dc/dcmitype/StillImage" />
      </cc:Work>
    </rdf:RDF>
  </metadata>
  <g
     id="layer1">
    <rect
       style="opacity:1;fill:#000000;fill-opacity:1;fill-rule:evenodd;stroke:#000000;stroke-width:0.03890445;stroke-linecap:butt;stroke-linejoin:miter;marker:none;stroke-miterlimit:4;stroke-dasharray:none;stroke-dashoffset:0;stroke-opacity:1;visibility:visible;display:inline"
       id="rect3159"
       width="11.994878"
       height="12.961075"
       x="59.018063"
       y="37.35923" />
    <rect
       style="opacity:1;fill:#000000;fill-opacity:1;fill-rule:evenodd;stroke:#000000;stroke-width:0.04887154;stroke-linecap:butt;stroke-linejoin:miter;marker:none;stroke-miterlimit:4;stroke-dasharray:none;stroke-dashoffset:0;stroke-opacity:1;visibility:visible;display:inline"
       id="rect3161"
       width="18.939224"
       height="12.953528"
       x="59.013123"
       y="53.359749" />
    <rect
       style="opacity:1;fill:#000000;fill-opacity:1;fill-rule:evenodd;stroke:#000000;stroke-width:0.05606217;stroke-linecap:butt;stroke-linejoin:miter;marker:none;stroke-miterlimit:4;stroke-dasharray:none;stroke-dashoffset:0;stroke-opacity:1;visibility:visible;display:inline"
       id="rect3163"
       width="24.928169"
       height="12.950533"
       x="59.010647"
       y="69.360039" />
    <rect
       style="opacity:1;fill:#000000;fill-opacity:1;fill-rule:evenodd;stroke:#000000;stroke-width:0.06343004;stroke-linecap:butt;stroke-linejoin:miter;marker:none;stroke-miterlimit:4;stroke-dasharray:none;stroke-dashoffset:0;stroke-opacity:1;visibility:visible;display:inline"
       id="rect3165"
       width="31.912174"
       height="12.950065"
       x="59.008778"
       y="85.360275" />
    <rect
       style="opacity:1;fill:#000000;fill-opacity:1;fill-rule:evenodd;stroke:#000000;stroke-width:0.06912295;stroke-linecap:butt;stroke-linejoin:miter;marker:none;stroke-miterlimit:4;stroke-dasharray:none;stroke-dashoffset:0;stroke-opacity:1;visibility:visible;display:inline"
       id="rect3167"
       width="37.898399"
       height="12.949765"
       x="59.00766"
       y="101.36042" />
    <rect
       style="opacity:1;fill:#000000;fill-opacity:1;fill-rule:evenodd;stroke:#000000;stroke-width:0.07522196;stroke-linecap:butt;stroke-linejoin:miter;marker:none;stroke-miterlimit:4;stroke-dasharray:none;stroke-dashoffset:0;stroke-opacity:1;visibility:visible;display:inline"
       id="rect3169"
       width="44.882267"
       height="12.949492"
       x="59.006687"
       y="117.36055" />
    <rect
       style="opacity:1;fill:#000000;fill-opacity:1;fill-rule:evenodd;stroke:#000000;stroke-width:0.08008074;stroke-linecap:butt;stroke-linejoin:miter;marker:none;stroke-miterlimit:4;stroke-dasharray:none;stroke-dashoffset:0;stroke-opacity:1;visibility:visible;display:inline"
       id="rect3171"
       width="50.868401"
       height="12.949302"
       x="59.006046"
       y="133.36064" />
    <path
       style="opacity:1;fill:#000000;fill-opacity:1;fill-rule:evenodd;stroke:none;stroke-width:0.44999999;stroke-linecap:butt;stroke-linejoin:miter;marker:none;stroke-miterlimit:4;stroke-dasharray:none;stroke-dashoffset:0;stroke-opacity:1;visibility:visible;display:inline"
       id="path3175"
       d="M 53,43.862183 A 6.5,6.5 0 1 1 40,43.862183 A 6.5,6.5 0 1 1 53,43.862183 z"
       transform="translate(12.5,-15)" />
    <text
       xml:space="preserve"
       style="line-height:0%;fill:#000000;fill-opacity:1;stroke:none;stroke-width:1px;stroke-linecap:butt;stroke-linejoin:miter;stroke-opacity:1"
       x="68"
       y="25.362183"
       id="text3179"><tspan
         id="tspan3181"
         x="68"
         y="25.362183"
         style="line-height:1.25">-4px for corners</tspan></text>
    <path
       style="opacity:1;fill:#000000;fill-opacity:1;fill-rule:evenodd;stroke:none;stroke-width:0.44999999;stroke-linecap:butt;stroke-linejoin:miter;marker:none;stroke-miterlimit:4;stroke-dasharray:none;stroke-dashoffset:0;stroke-opacity:1;visibility:visible;display:inline"
       id="path3183"
       d="M 53,43.862183 A 6.5,6.5 0 1 1 40,43.862183 A 6.5,6.5 0 1 1 53,43.862183 z"
       transform="translate(12.5,0)" />
    <path
       style="opacity:1;fill:#000000;fill-opacity:1;fill-rule:evenodd;stroke:none;stroke-width:0.44999999;stroke-linecap:butt;stroke-linejoin:miter;marker:none;stroke-miterlimit:4;stroke-dasharray:none;stroke-dashoffset:0;stroke-opacity:1;visibility:visible;display:inline"
       id="path3185"
       d="M 53,43.862183 A 6.5,6.5 0 1 1 40,43.862183 A 6.5,6.5 0 1 1 53,43.862183 z"
       transform="translate(12.5,16)" />
    <path
       style="opacity:1;fill:#000000;fill-opacity:1;fill-rule:evenodd;stroke:none;stroke-width:0.44999999;stroke-linecap:butt;stroke-linejoin:miter;marker:none;stroke-miterlimit:4;stroke-dasharray:none;stroke-dashoffset:0;stroke-opacity:1;visibility:visible;display:inline"
       id="path3187"
       d="M 53,43.862183 A 6.5,6.5 0 1 1 40,43.862183 A 6.5,6.5 0 1 1 53,43.862183 z"
       transform="translate(12.5,32)" />
    <path
       style="opacity:1;fill:#000000;fill-opacity:1;fill-rule:evenodd;stroke:none;stroke-width:0.44999999;stroke-linecap:butt;stroke-linejoin:miter;marker:none;stroke-miterlimit:4;stroke-dasharray:none;stroke-dashoffset:0;stroke-opacity:1;visibility:visible;display:inline"
       id="path3189"
       d="M 53,43.862183 A 6.5,6.5 0 1 1 40,43.862183 A 6.5,6.5 0 1 1 53,43.862183 z"
       transform="translate(12.5,48)" />
    <path
       style="opacity:1;fill:#000000;fill-opacity:1;fill-rule:evenodd;stroke:none;stroke-width:0.44999999;stroke-linecap:butt;stroke-linejoin:miter;marker:none;stroke-miterlimit:4;stroke-dasharray:none;stroke-dashoffset:0;stroke-opacity:1;visibility:visible;display:inline"
       id="path3191"
       d="M 53,43.862183 A 6.5,6.5 0 1 1 40,43.862183 A 6.5,6.5 0 1 1 53,43.862183 z"
       transform="translate(12.5,64)" />
    <path
       style="opacity:1;fill:#000000;fill-opacity:1;fill-rule:evenodd;stroke:none;stroke-width:0.44999999;stroke-linecap:butt;stroke-linejoin:miter;marker:none;stroke-miterlimit:4;stroke-dasharray:none;stroke-dashoffset:0;stroke-opacity:1;visibility:visible;display:inline"
       id="path3193"
       d="M 53,43.862183 A 6.5,6.5 0 1 1 40,43.862183 A 6.5,6.5 0 1 1 53,43.862183 z"
       transform="translate(12.5,80)" />
    <path
       style="opacity:1;fill:#000000;fill-opacity:1;fill-rule:evenodd;stroke:none;stroke-width:0.44999999;stroke-linecap:butt;stroke-linejoin:miter;marker:none;stroke-miterlimit:4;stroke-dasharray:none;stroke-dashoffset:0;stroke-opacity:1;visibility:visible;display:inline"
       id="path3195"
       d="M 53,43.862183 A 6.5,6.5 0 1 1 40,43.862183 A 6.5,6.5 0 1 1 53,43.862183 z"
       transform="translate(12.5,95.96875)" />
    <path
       style="opacity:1;fill:#000000;fill-opacity:1;fill-rule:evenodd;stroke:none;stroke-width:0.44999999;stroke-linecap:butt;stroke-linejoin:miter;marker:none;stroke-miterlimit:4;stroke-dasharray:none;stroke-dashoffset:0;stroke-opacity:1;visibility:visible;display:inline"
       id="path3197"
       d="M 53,43.862183 A 6.5,6.5 0 1 1 40,43.862183 A 6.5,6.5 0 1 1 53,43.862183 z"
       transform="translate(24.5,0)" />
    <path
       style="opacity:1;fill:#000000;fill-opacity:1;fill-rule:evenodd;stroke:none;stroke-width:0.44999999;stroke-linecap:butt;stroke-linejoin:miter;marker:none;stroke-miterlimit:4;stroke-dasharray:none;stroke-dashoffset:0;stroke-opacity:1;visibility:visible;display:inline"
       id="path3199"
       d="M 53,43.862183 A 6.5,6.5 0 1 1 40,43.862183 A 6.5,6.5 0 1 1 53,43.862183 z"
       transform="translate(31.5,16)" />
    <path
       style="opacity:1;fill:#000000;fill-opacity:1;fill-rule:evenodd;stroke:none;stroke-width:0.44999999;stroke-linecap:butt;stroke-linejoin:miter;marker:none;stroke-miterlimit:4;stroke-dasharray:none;stroke-dashoffset:0;stroke-opacity:1;visibility:visible;display:inline"
       id="path3201"
       d="M 53,43.862183 A 6.5,6.5 0 1 1 40,43.862183 A 6.5,6.5 0 1 1 53,43.862183 z"
       transform="translate(37.5,32)" />
    <path
       style="opacity:1;fill:#000000;fill-opacity:1;fill-rule:evenodd;stroke:none;stroke-width:0.44999999;stroke-linecap:butt;stroke-linejoin:miter;marker:none;stroke-miterlimit:4;stroke-dasharray:none;stroke-dashoffset:0;stroke-opacity:1;visibility:visible;display:inline"
       id="path3203"
       d="M 53,43.862183 A 6.5,6.5 0 1 1 40,43.862183 A 6.5,6.5 0 1 1 53,43.862183 z"
       transform="translate(44.5,48)" />
    <path
       style="opacity:1;fill:#000000;fill-opacity:1;fill-rule:evenodd;stroke:none;stroke-width:0.44999999;stroke-linecap:butt;stroke-linejoin:miter;marker:none;stroke-miterlimit:4;stroke-dasharray:none;stroke-dashoffset:0;stroke-opacity:1;visibility:visible;display:inline"
       id="path3205"
       d="M 53,43.862183 A 6.5,6.5 0 1 1 40,43.862183 A 6.5,6.5 0 1 1 53,43.862183 z"
       transform="translate(50.5,64)" />
    <path
       style="opacity:1;fill:#000000;fill-opacity:1;fill-rule:evenodd;stroke:none;stroke-width:0.44999999;stroke-linecap:butt;stroke-linejoin:miter;marker:none;stroke-miterlimit:4;stroke-dasharray:none;stroke-dashoffset:0;stroke-opacity:1;visibility:visible;display:inline"
       id="path3207"
       d="M 53,43.862183 A 6.5,6.5 0 1 1 40,43.862183 A 6.5,6.5 0 1 1 53,43.862183 z"
       transform="translate(63.5,96)" />
    <path
       style="opacity:1;fill:#000000;fill-opacity:1;fill-rule:evenodd;stroke:none;stroke-width:0.44999999;stroke-linecap:butt;stroke-linejoin:miter;marker:none;stroke-miterlimit:4;stroke-dasharray:none;stroke-dashoffset:0;stroke-opacity:1;visibility:visible;display:inline"
       id="path3209"
       d="M 53,43.862183 A 6.5,6.5 0 1 1 40,43.862183 A 6.5,6.5 0 1 1 53,43.862183 z"
       transform="translate(57.5,80)" />
  </g>
</svg>
